# xmcd CD database file
#
# Track frame offsets:
#	150
#	22409
#	36477
#	47561
#	71465
#	88926
#
# Disc length: 1480 seconds
#
# Revision: 0
# Processed by: cddbd v1.5.1PL2 Copyright (c) Steve Scherf et al.
# Submitted via: CDex 1.51
#
DISCID=5305c606
DTITLE=Kyuss - 1994-05-22-Dynamo Open Air Festival-Holland
DYEAR=1994
DGENRE=Blues
TTITLE0=Gardenia (beginning is cut)
TTITLE1=Allen's Wrench
TTITLE2=Conan Troutman
TTITLE3=Supa scoopa and mighty scoop
TTITLE4=Green machine
TTITLE5=Freedom run
EXTD=YEAR: 1994
EXTT0=
EXTT1=
EXTT2=
EXTT3=
EXTT4=
EXTT5=
PLAYORDER=
